# xmcd CD database file
#
# Track frame offsets:
#	150
#	17933
#	35353
#	52402
#	67433
#	79469
#	94792
#	110883
#	125829
#	135037
#
# Disc length: 1915 seconds
#
# Revision: 0
# Processed by: cddbd v1.5.2PL0 Copyright (c) Steve Scherf et al.
# Submitted via: CDex 1.51
#
DISCID=9a07790a
DTITLE=Keith B. Brown - Essential songs 2000-2006
DYEAR=1900
DGENRE=Country
TTITLE0=01-What is the time
TTITLE1=02-Joelle
TTITLE2=03-Jo Jo (the surface)
TTITLE3=04-Down the line
TTITLE4=05-Satisfy my soul
TTITLE5=06-All I need
TTITLE6=07-Bad luck child
TTITLE7=08-Got to keep movin'
TTITLE8=09-Didn't come today
TTITLE9=10-Tell me what you say
EXTD=
EXTT0=
EXTT1=
EXTT2=
EXTT3=
EXTT4=
EXTT5=
EXTT6=
EXTT7=
EXTT8=
EXTT9=
PLAYORDER=
